<?xml version="1.0" standalone="no"?>
<!DOCTYPE svg PUBLIC "-//W3C//DTD SVG 20010904//EN"
 "http://www.w3.org/TR/2001/REC-SVG-20010904/DTD/svg10.dtd">
<svg version="1.0" xmlns="http://www.w3.org/2000/svg"
 width="269.000000pt" height="187.000000pt" viewBox="0 0 269.000000 187.000000"
 preserveAspectRatio="xMidYMid meet">

<g transform="translate(0.000000,187.000000) scale(0.100000,-0.100000)"
fill="#000000" stroke="none">
<path d="M1265 1655 c-46 -25 -63 -44 -81 -91 -24 -63 -12 -125 33 -175 20
-22 46 -42 59 -45 22 -6 24 -11 24 -70 l0 -64 -197 0 c-186 0 -201 -2 -248
-24 -55 -25 -119 -90 -140 -140 -7 -17 -16 -55 -20 -83 -5 -39 -11 -53 -23
-53 -31 0 -101 -51 -130 -95 -82 -125 -32 -283 111 -344 40 -17 47 -25 47 -48
1 -72 69 -159 158 -200 l52 -25 435 1 c424 0 435 1 485 22 83 36 142 112 164
211 4 19 16 30 39 37 107 36 174 159 147 271 -17 71 -58 123 -124 155 -53 26
-55 29 -62 73 -3 26 -12 61 -19 78 -20 50 -85 115 -140 140 -47 22 -62 24
-247 24 l-198 0 0 63 c1 62 1 62 38 79 78 37 112 140 73 220 -31 64 -73 92
-146 96 -42 2 -69 -2 -90 -13z m143 -101 c47 -54 10 -134 -63 -134 -80 0 -112
84 -55 142 26 25 36 29 63 24 18 -3 42 -17 55 -32z m397 -450 c22 -11 54 -40
70 -63 l30 -43 3 -276 c3 -236 1 -282 -13 -319 -18 -47 -71 -99 -113 -110 -15
-5 -217 -8 -449 -8 l-421 0 -44 30 c-25 18 -52 49 -65 75 -22 43 -23 54 -23
305 0 152 5 276 11 298 13 50 76 112 125 125 25 7 188 10 444 9 390 -2 407 -3
445 -23z m-1115 -419 l0 -136 -30 16 c-33 17 -70 80 -70 120 0 39 24 89 55
113 15 12 32 22 36 22 5 0 9 -61 9 -135z m1355 113 c31 -24 55 -74 55 -113 0
-40 -37 -103 -70 -120 l-30 -16 0 136 c0 74 4 135 9 135 4 0 21 -10 36 -22z"/>
<path d="M964 920 c-11 -4 -33 -22 -47 -40 -51 -60 -28 -158 46 -193 45 -22
74 -21 116 1 65 35 89 118 51 179 -33 54 -106 78 -166 53z m92 -106 c12 -47
-37 -72 -70 -35 -20 22 -12 49 18 61 29 10 45 2 52 -26z"/>
<path d="M1610 917 c-34 -17 -70 -74 -70 -111 0 -66 65 -136 128 -136 40 0 91
28 112 62 33 52 23 122 -24 165 -29 27 -44 33 -78 33 -24 0 -54 -6 -68 -13z
m98 -93 c14 -25 3 -53 -24 -60 -42 -11 -72 34 -42 64 17 17 55 15 66 -4z"/>
<path d="M1192 518 c-18 -18 -14 -56 7 -68 11 -5 78 -10 150 -10 104 0 133 3
145 16 19 18 21 45 4 62 -17 17 -289 17 -306 0z"/>
</g>
</svg>
